<?xml version="1.0" encoding="UTF-8"?>
<svg version="1.1" xmlns="http://www.w3.org/2000/svg" width="300" height="300">
<path d="M0 0 C2 2 2 2 2.05690002 3.86399841 C1.35845642 9.24601425 0.25918052 14.33523982 -1.28515625 19.53515625 C-1.50570175 20.29928329 -1.72624725 21.06341034 -1.95347595 21.85069275 C-2.6496001 24.25669176 -3.35584289 26.65957612 -4.0625 29.0625 C-4.54039019 30.70748587 -5.01760976 32.35266672 -5.49414062 33.99804688 C-6.65503159 38.00099043 -7.8249979 42.0011769 -9 46 C-1.29497805 45.43087585 6.20756301 44.13023278 13.78938293 42.67191887 C15.89236258 42.2680069 17.99645508 41.87042802 20.10095215 41.47450256 C26.07699721 40.34934711 32.05130868 39.21523348 38.02392578 38.07202148 C41.69744002 37.36933277 45.37256071 36.6756222 49.04878235 35.98724556 C50.43671244 35.7255258 51.8240157 35.46045624 53.21061707 35.19178581 C69.63407343 32.01109808 69.63407343 32.01109808 76 33 C78.625 35.125 78.625 35.125 80 38 C80.36506496 42.4493951 79.77704895 45.15007433 77.61328125 49.02734375 C77.0939502 49.97198486 76.57461914 50.91662598 76.03955078 51.88989258 C75.46962402 52.89560303 74.89969727 53.90131348 74.3125 54.9375 C73.72452637 55.99799561 73.13655273 57.05849121 72.53076172 58.15112305 C70.70102523 61.44206339 68.8530325 64.72212973 67 68 C65.92314942 69.91404694 64.84632529 71.82810875 63.76953125 73.7421875 C61.64779657 77.50540713 59.51710338 81.26342136 57.3828125 85.01953125 C53.71298949 91.48966841 50.10507556 97.99362674 46.5 104.5 C41.86949391 112.85417027 37.21134727 121.19114714 32.5 129.5 C27.16680908 138.90707649 21.90322888 148.35149321 16.65844727 157.80810547 C10.71367618 168.52472941 4.72776111 179.21800966 -1.26611328 189.90722656 C-4.17939139 195.10370742 -7.08956527 200.30192626 -10 205.5 C-13.48676785 211.72741207 -16.97412444 217.95448933 -20.46484375 224.1796875 C-26.52060187 234.98203491 -32.55570674 245.79534102 -38.5625 256.625 C-43.41506598 265.36681055 -48.28203871 274.10024379 -53.1875 282.8125 C-53.71609619 283.75496582 -54.24469238 284.69743164 -54.78930664 285.66845703 C-62.04607734 298.52303867 -62.04607734 298.52303867 -65 300 C-68.3125 300.375 -68.3125 300.375 -72 300 C-75.65376525 296.84677967 -78.07968609 293.56171953 -80.42578125 289.37109375 C-81.05000977 288.26660889 -81.67423828 287.16212402 -82.31738281 286.02416992 C-82.98251237 284.82866363 -83.64754916 283.63310571 -84.3125 282.4375 C-85.00922784 281.19913954 -85.70683419 279.96127298 -86.40527344 278.72387695 C-87.8635629 276.13876137 -89.31800638 273.55153622 -90.77001953 270.96289062 C-94.04831194 265.12674244 -97.37833932 259.32017419 -100.70541382 253.51174927 C-102.95026343 249.59137838 -105.19066908 245.66847018 -107.42773438 241.74365234 C-108.38864602 240.06683169 -109.35691067 238.39416367 -110.33789062 236.72900391 C-113 232.20085377 -113 232.20085377 -113 230 C-113.66 229.67 -114.32 229.34 -115 229 C-116.14023542 227.01071831 -117.20922865 224.98057941 -118.25 222.9375 C-122.62302414 214.47745792 -127.45922401 206.30268019 -132.33886719 198.12670898 C-132.92700195 197.13227783 -133.51513672 196.13784668 -134.12109375 195.11328125 C-134.6514624 194.22423096 -135.18183105 193.33518066 -135.72827148 192.41918945 C-136.87438795 190.23894985 -137.54172629 188.40602435 -138 186 C-138.66 186 -139.32 186 -140 186 C-140.34289062 185.2678125 -140.68578125 184.535625 -141.0390625 183.78125 C-146.51312915 172.45559486 -152.93696842 161.71451365 -159.3125 150.87890625 C-161.69683389 146.81118849 -164.04922252 142.72644306 -166.375 138.625 C-166.74995605 137.97160645 -167.12491211 137.31821289 -167.51123047 136.64501953 C-170 132.23534732 -170 132.23534732 -170 130 C-170.66 129.67 -171.32 129.34 -172 129 C-173.18609779 127.14178013 -174.29648968 125.23516079 -175.375 123.3125 C-175.72095215 122.69874512 -176.0669043 122.08499023 -176.42333984 121.45263672 C-179.04190627 116.78337204 -181.58946546 112.07601345 -184.13867188 107.36865234 C-188.91277699 98.55600562 -193.7984296 89.82985798 -198.875 81.1875 C-201.25283099 77.12665011 -203.62774951 73.06411241 -206 69 C-206.98226562 67.31849854 -206.98226562 67.31849854 -207.984375 65.60302734 C-209.96538537 62.20364998 -211.92084994 58.78989097 -213.875 55.375 C-214.48843262 54.32594482 -215.10186523 53.27688965 -215.73388672 52.19604492 C-216.29350098 51.21095947 -216.85311523 50.22587402 -217.4296875 49.2109375 C-217.92710449 48.34774902 -218.42452148 47.48456055 -218.93701172 46.59521484 C-220.19716708 43.51862975 -220.28490163 41.29752477 -220 38 C-218.625 35.125 -218.625 35.125 -216 33 C-209.56434022 32.21479448 -203.09479968 33.26604459 -196.77416992 34.45288086 C-195.91267334 34.6073317 -195.05117676 34.76178253 -194.16357422 34.9209137 C-191.3509683 35.42728027 -188.54078258 35.94592077 -185.73046875 36.46484375 C-183.76147316 36.82192213 -181.79233915 37.17823805 -179.82307434 37.53382874 C-174.66320831 38.46770457 -169.50532302 39.41210364 -164.34777832 40.35870361 C-159.09568136 41.3206109 -153.84168874 42.27204614 -148.58789062 43.22460938 C-140.91724792 44.61704966 -133.24726677 46.01303293 -125.57885742 47.41772461 C-124.78032852 47.56374115 -123.98179962 47.70975769 -123.15907288 47.86019897 C-119.43305862 48.54380189 -115.71163083 49.24190457 -112 50 C-112.01160156 49.29617187 -112.02320312 48.59234375 -112.03515625 47.8671875 C-112.08814311 42.06891156 -111.99101635 36.29109197 -111.6875 30.5 C-111.62949219 29.3553125 -111.57148437 28.210625 -111.51171875 27.03125 C-110.93630298 23.62268023 -110.40808917 22.44142248 -108 20 C-104.96690369 18.98316956 -104.96690369 18.98316956 -101.18725586 18.24829102 C-100.15196747 18.04000671 -100.15196747 18.04000671 -99.09576416 17.82751465 C-96.80489927 17.37069315 -94.51024237 16.93732056 -92.21484375 16.50390625 C-90.59962131 16.18670991 -88.98468068 15.86807553 -87.37001038 15.54808044 C-83.09685862 14.70531466 -78.82012247 13.88233942 -74.5423584 13.06335449 C-70.29219097 12.24614483 -66.04567673 11.41042484 -61.79882812 10.57617188 C-54.45154612 9.13532135 -47.10066587 7.71404743 -39.74767113 6.30266762 C-34.83214636 5.35757779 -29.92114982 4.39229144 -25.01220703 3.41357422 C-23.81487442 3.17686508 -22.61754181 2.94015594 -21.38392639 2.6962738 C-19.21415745 2.26686108 -17.04531044 1.83274807 -14.87767029 1.39271545 C-9.8434991 0.4038437 -5.13297412 -0.43987169 0 0 Z " fill="#8B73FE" transform="translate(220,0)"/>
<path d="M0 0 C0.99 0.99 0.99 0.99 2 2 C1.82652463 10.27203604 -0.82630301 18.14137963 -3.12817383 26.02832031 C-3.80820035 28.36025572 -4.47627009 30.69536231 -5.14257812 33.03125 C-7.24435375 40.34435284 -9.46721427 47.54523725 -12.14916992 54.67089844 C-13.38457628 58.05275689 -14.32944643 61.45620018 -15.25 64.9375 C-15.58515625 66.18402344 -15.9203125 67.43054688 -16.265625 68.71484375 C-17.14543931 72.08956917 -17.14543931 72.08956917 -17 76 C-8.37157914 75.5715339 -0.16123348 74.38747274 8.2734375 72.62109375 C11.95834748 72.00694209 15.27361717 71.74571829 19 72 C19.66 72.66 20.32 73.32 21 74 C20.66017903 78.39240212 18.66708044 82.08745927 16.71096802 85.95901489 C16.36921189 86.64720712 16.02745577 87.33539934 15.67534339 88.04444587 C14.53030223 90.34648074 13.37674315 92.64413753 12.22314453 94.94189453 C11.3997908 96.59266751 10.57694779 98.24369531 9.75457764 99.8949585 C7.52045587 104.37688263 5.27875497 108.85497575 3.035357 113.33226252 C0.68956595 118.01625301 -1.65037137 122.7031668 -3.99124146 127.38961792 C-7.92294938 135.25849233 -11.85971227 143.12482235 -15.79931641 150.98974609 C-20.35595629 160.08669472 -24.90392909 169.18793658 -29.44743049 178.29145348 C-33.34708252 186.10436408 -37.25139944 193.91493009 -41.15963662 201.72354972 C-43.49455308 206.38870217 -45.82783393 211.05465346 -48.15691757 215.7227211 C-50.3462826 220.11010649 -52.54148163 224.49452281 -54.74124908 228.87670135 C-55.54836208 230.48695509 -56.35342632 232.09823757 -57.15630722 233.71060562 C-58.25101988 235.90820664 -59.35302973 238.10199129 -60.45700073 240.29495239 C-60.77441975 240.93648258 -61.09183876 241.57801277 -61.41887653 242.23898327 C-64.31821669 247.9615389 -64.31821669 247.9615389 -67 250 C-69.625 250.25 -69.625 250.25 -72 250 C-72.33 249.67 -72.66 249.34 -73 249 C-72.94312472 242.34559197 -71.36062068 235.9230742 -69.80859375 229.4921875 C-68.85630022 225.37938357 -68.09055878 221.24672207 -67.34521484 217.09204102 C-66.46479797 212.27687271 -65.47270082 207.4922625 -64.44140625 202.70703125 C-64.16109403 201.39651007 -63.880903 200.08596296 -63.60083008 198.77539062 C-63.04186337 196.16090392 -62.47075098 193.55003022 -61.89331055 190.93945312 C-61.63461182 189.72837891 -61.37591309 188.51730469 -61.109375 187.26953125 C-60.87186523 186.18260986 -60.63435547 185.09568848 -60.38964844 183.97583008 C-59.99879222 180.99077593 -60.220297 178.88710782 -61 176 C-67.091967 175.41045481 -72.67020737 178.10392591 -78.25 180.25 C-81.26847715 181.07322104 -83.02791982 180.87414123 -86 180 C-87.54961142 175.0388604 -86.41031724 170.83718133 -85.34765625 165.90234375 C-85.07918129 164.5954232 -85.07918129 164.5954232 -84.80528259 163.26210022 C-84.23346215 160.48525305 -83.64873201 157.71133723 -83.0625 154.9375 C-82.48184445 152.15973039 -81.90398237 149.38143299 -81.33042908 146.60218811 C-80.97333705 144.87502585 -80.61181838 143.1487715 -80.24537659 141.42356873 C-80.08198288 140.63917923 -79.91858917 139.85478973 -79.75024414 139.04663086 C-79.6051088 138.35999863 -79.45997345 137.67336639 -79.31044006 136.96592712 C-78.89601498 134.67320744 -78.89601498 134.67320744 -79 131 C-86.09663955 130.61060963 -92.35420684 132.42161423 -99.17382812 134.22265625 C-104.61614988 135.60195575 -109.38010235 136.36132522 -115 136 C-116.81096281 134.18903719 -116.16652853 131.69531374 -116.18994141 129.28222656 C-116.18913574 128.4465918 -116.18833008 127.61095703 -116.1875 126.75 C-116.18669434 125.85506836 -116.18588867 124.96013672 -116.18505859 124.03808594 C-116.11182387 115.56296127 -115.49959827 107.15527647 -114.85449219 98.70776367 C-113.78284024 84.09763773 -113.25934064 69.46428033 -112.69775391 54.82714844 C-112.51385879 50.05324475 -112.31859992 45.27998973 -112.10906982 40.50714111 C-112.03947836 38.90747211 -111.97295694 37.30766457 -111.91046143 35.70770264 C-111.83083395 33.74070565 -111.73072148 31.77456713 -111.62890625 29.80859375 C-111.57935791 28.76372803 -111.52980957 27.7188623 -111.47875977 26.64233398 C-110.90683869 23.48583128 -110.23841642 22.29563433 -108 20 C-104.96690369 18.98316956 -104.96690369 18.98316956 -101.18725586 18.24829102 C-100.4970636 18.10943481 -99.80687134 17.97057861 -99.09576416 17.82751465 C-96.80489927 17.37069315 -94.51024237 16.93732056 -92.21484375 16.50390625 C-90.59962131 16.18670991 -88.98468068 15.86807553 -87.37001038 15.54808044 C-83.09685862 14.70531466 -78.82012247 13.88233942 -74.5423584 13.06335449 C-70.29219097 12.24614483 -66.04567673 11.41042484 -61.79882812 10.57617188 C-54.45154612 9.13532135 -47.10066587 7.71404743 -39.74767113 6.30266762 C-34.83214636 5.35757779 -29.92114982 4.39229144 -25.01220703 3.41357422 C-23.81487442 3.17686508 -22.61754181 2.94015594 -21.38392639 2.6962738 C-19.21415745 2.26686108 -17.04531044 1.83274807 -14.87767029 1.39271545 C-9.8434991 0.4038437 -5.13297412 -0.43987169 0 0 Z " fill="#FEC821" transform="translate(220,0)"/>
<path d="M0 0 C0.99 0.99 0.99 0.99 2 2 C1.6687726 8.95577549 -0.02237906 15.34574085 -2 22 C-2.99 21.01 -2.99 21.01 -4 20 C-3.625 16.875 -3.625 16.875 -3 14 C-2.34 14 -1.68 14 -1 14 C-1.99 12.515 -1.99 12.515 -3 11 C-16.63813594 12.9196471 -30.26882519 14.86457317 -43.875 17 C-54.79090614 18.71080884 -65.73006541 20.20190803 -76.68896484 21.60546875 C-83.83947245 22.53175576 -90.922339 23.62252375 -98 25 C-99.07636719 25.20882813 -100.15273437 25.41765625 -101.26171875 25.6328125 C-102.46248047 25.87644531 -102.46248047 25.87644531 -103.6875 26.125 C-104.51636719 26.29257812 -105.34523438 26.46015625 -106.19921875 26.6328125 C-106.79347656 26.75398438 -107.38773437 26.87515625 -108 27 C-109.00496852 30.01490557 -109.10335303 32.04181692 -109.0625 35.1875 C-109.04896484 36.53908203 -109.04896484 36.53908203 -109.03515625 37.91796875 C-109.02355469 38.60503906 -109.01195313 39.29210938 -109 40 C-109.66 40 -110.32 40 -111 40 C-110.835 41.11375 -110.67 42.2275 -110.5 43.375 C-109.87905495 48.25510338 -109.90942126 53.08861948 -110 58 C-110.99 58.495 -110.99 58.495 -112 59 C-112.32168179 24.4266309 -112.32168179 24.4266309 -108 20 C-104.96690369 18.98316956 -104.96690369 18.98316956 -101.18725586 18.24829102 C-100.4970636 18.10943481 -99.80687134 17.97057861 -99.09576416 17.82751465 C-96.80489927 17.37069315 -94.51024237 16.93732056 -92.21484375 16.50390625 C-90.59962131 16.18670991 -88.98468068 15.86807553 -87.37001038 15.54808044 C-83.09685862 14.70531466 -78.82012247 13.88233942 -74.5423584 13.06335449 C-70.29219097 12.24614483 -66.04567673 11.41042484 -61.79882812 10.57617188 C-54.45154612 9.13532135 -47.10066587 7.71404743 -39.74767113 6.30266762 C-34.83214636 5.35757779 -29.92114982 4.39229144 -25.01220703 3.41357422 C-23.81487442 3.17686508 -22.61754181 2.94015594 -21.38392639 2.6962738 C-19.21415745 2.26686108 -17.04531044 1.83274807 -14.87767029 1.39271545 C-9.8434991 0.4038437 -5.13297412 -0.43987169 0 0 Z " fill="#FEE664" transform="translate(220,0)"/>
<path d="M0 0 C0.495 0.99 0.495 0.99 1 2 C1.66 2 2.32 2 3 2 C2.01 6.29 1.02 10.58 0 15 C-0.99 14.01 -0.99 14.01 -2 13 C-1.625 9.875 -1.625 9.875 -1 7 C-0.34 7 0.32 7 1 7 C0.01 5.515 0.01 5.515 -1 4 C-14.63813594 5.9196471 -28.26882519 7.86457317 -41.875 10 C-52.79090614 11.71080884 -63.73006541 13.20190803 -74.68896484 14.60546875 C-81.83947245 15.53175576 -88.922339 16.62252375 -96 18 C-97.07636719 18.20882813 -98.15273437 18.41765625 -99.26171875 18.6328125 C-100.46248047 18.87644531 -100.46248047 18.87644531 -101.6875 19.125 C-102.51636719 19.29257812 -103.34523438 19.46015625 -104.19921875 19.6328125 C-104.79347656 19.75398438 -105.38773437 19.87515625 -106 20 C-107.00496852 23.01490557 -107.10335303 25.04181692 -107.0625 28.1875 C-107.04896484 29.53908203 -107.04896484 29.53908203 -107.03515625 30.91796875 C-107.02355469 31.60503906 -107.01195313 32.29210938 -107 33 C-107.66 33 -108.32 33 -109 33 C-108.835 34.11375 -108.67 35.2275 -108.5 36.375 C-107.87905495 41.25510338 -107.90942126 46.08861948 -108 51 C-108.99 51.495 -108.99 51.495 -110 52 C-110.10902914 40.28188331 -110.09908609 28.6777897 -109 17 C-104.6555918 15.41058237 -100.58933153 14.54856471 -96 14 C-95.32308105 13.91878906 -94.64616211 13.83757813 -93.94873047 13.75390625 C-91.04312378 13.40918449 -88.1359343 13.07904473 -85.22851562 12.75 C-84.51244141 12.6675 -83.79636719 12.585 -83.05859375 12.5 C-82.42236084 12.4278125 -81.78612793 12.355625 -81.13061523 12.28125 C-79.52045991 12.06870285 -77.91533899 11.8175309 -76.3137207 11.5480957 C-72.1925671 10.86644906 -68.06008525 10.29776441 -63.921875 9.73046875 C-62.11399868 9.48082146 -60.30613794 9.23106125 -58.49829102 8.98120117 C-57.55849396 8.85151947 -56.6186969 8.72183777 -55.65042114 8.58822632 C-41.94346517 6.69445375 -28.23916469 4.79044293 -14.5625 2.6875 C-13.52383789 2.52854248 -12.48517578 2.36958496 -11.41503906 2.20581055 C-7.55955483 1.60475417 -3.77573459 0.9962176 0 0 Z " fill="#FDE051" transform="translate(218,7)"/>
<path d="M0 0 C0.66 0 1.32 0 2 0 C0.37453345 6.03028022 -2.74951087 11.08969065 -5.875 16.4375 C-6.40480469 17.35337891 -6.93460938 18.26925781 -7.48046875 19.21289062 C-8.51059342 20.99324257 -9.54274101 22.77242594 -10.57714844 24.55029297 C-12.40129341 27.69090221 -14.20274091 30.84394357 -16 34 C-16.66 33.34 -17.32 32.68 -18 32 C-15.94187567 28.16430215 -13.87770903 24.33188731 -11.8125 20.5 C-11.23435547 19.42234375 -10.65621094 18.3446875 -10.06054688 17.234375 C-3.61701682 5.29382214 -3.61701682 5.29382214 0 0 Z " fill="#B842FD" transform="translate(197,223)"/>
<path d="M0 0 C4.12898047 1.37632682 4.63749849 3.35986248 6.7578125 7.1171875 C7.2805928 8.03662643 7.2805928 8.03662643 7.81393433 8.97463989 C8.5493417 10.27185603 9.28036673 11.5715649 10.00732422 12.87353516 C11.11942501 14.86501665 12.24393558 16.84904045 13.37109375 18.83203125 C18.82934983 28.48804948 18.82934983 28.48804948 20 32 C19.01 32.495 19.01 32.495 18 33 C15.75377966 29.10632243 13.51189919 25.21018839 11.27392578 21.31176758 C10.51273114 19.98719833 9.75037551 18.66329553 8.98681641 17.34008789 C7.88655156 15.43291434 6.79054848 13.52334613 5.6953125 11.61328125 C5.18582565 10.73329216 5.18582565 10.73329216 4.66604614 9.83552551 C2.83640008 6.63429233 1.27536579 3.4604925 0 0 Z " fill="#B842FD" transform="translate(125,262)"/>
<path d="M0 0 C0.66 0 1.32 0 2 0 C-0.27773383 5.99088259 -3.39093313 11.49800765 -6.4375 17.125 C-7.31631836 18.77048828 -7.31631836 18.77048828 -8.21289062 20.44921875 C-8.78072266 21.49980469 -9.34855469 22.55039063 -9.93359375 23.6328125 C-10.7078772 25.06971436 -10.7078772 25.06971436 -11.49780273 26.53564453 C-12.83301085 28.72605421 -14.09550331 30.30482381 -16 32 C-16.33 31.34 -16.66 30.68 -17 30 C-15.95303106 27.75395963 -14.85217333 25.64685117 -13.6328125 23.49609375 C-13.27863251 22.85761002 -12.92445251 22.21912628 -12.55953979 21.56129456 C-11.4221493 19.51577045 -10.27352402 17.47678952 -9.125 15.4375 C-8.35737518 14.05833083 -7.59043904 12.6787781 -6.82421875 11.29882812 C-1.19063601 1.19063601 -1.19063601 1.19063601 0 0 Z " fill="#B644FD" transform="translate(215,191)"/>
<path d="M0 0 C0.66 0 1.32 0 2 0 C0.39995767 5.78476841 -2.44626569 10.66071314 -5.4375 15.8125 C-5.92798828 16.68326172 -6.41847656 17.55402344 -6.92382812 18.45117188 C-7.40142578 19.27810547 -7.87902344 20.10503906 -8.37109375 20.95703125 C-9.0196936 22.08588745 -9.0196936 22.08588745 -9.68139648 23.23754883 C-11 25 -11 25 -14 26 C-12.65788025 22.444218 -11.07755303 19.20894833 -9.1796875 15.91796875 C-8.64472656 14.98662109 -8.10976562 14.05527344 -7.55859375 13.09570312 C-7.00300781 12.13599609 -6.44742188 11.17628906 -5.875 10.1875 C-5.31167969 9.20845703 -4.74835938 8.22941406 -4.16796875 7.22070312 C-2.78155585 4.81210445 -1.39214945 2.40528605 0 0 Z " fill="#B941FD" transform="translate(178,257)"/>
<path d="M0 0 C1.28197266 0.02320313 1.28197266 0.02320313 2.58984375 0.046875 C4.86059898 0.23341413 6.87774914 0.62144059 9.0625 1.25 C9.0625 1.91 9.0625 2.57 9.0625 3.25 C7.39638095 3.292721 5.72867115 3.29063832 4.0625 3.25 C3.7325 2.92 3.4025 2.59 3.0625 2.25 C-1.90661366 3.37697043 -1.90661366 3.37697043 -5.9375 6.25 C-6.5800235 8.31874034 -6.5800235 8.31874034 -6.9375 10.25 C-7.5975 10.25 -8.2575 10.25 -8.9375 10.25 C-8.32834725 3.79298083 -8.32834725 3.79298083 -6.703125 1.53515625 C-4.35556955 -0.17357327 -2.87767666 -0.08654667 0 0 Z " fill="#4BCBFE" transform="translate(8.9375,32.75)"/>
<path d="M0 0 C6.84817102 0.48641215 13.33042073 1.35993952 20 3 C20 3.66 20 4.32 20 5 C14.06266416 4.54603871 8.68944763 3.74166764 3 2 C2.01 2 1.02 2 0 2 C0 1.34 0 0.68 0 0 Z " fill="#53C2FD" transform="translate(31,37)"/>
<path d="M0 0 C0.58201172 0.76763672 0.58201172 0.76763672 1.17578125 1.55078125 C-2.80482652 2.72154824 -6.74043592 3.80827528 -10.82421875 4.55078125 C-11.15421875 3.23078125 -11.48421875 1.91078125 -11.82421875 0.55078125 C-10.22541062 0.13383129 -8.61980614 -0.25712731 -7.01171875 -0.63671875 C-6.11839844 -0.85714844 -5.22507813 -1.07757812 -4.3046875 -1.3046875 C-1.82421875 -1.44921875 -1.82421875 -1.44921875 0 0 Z " fill="#F7E274" transform="translate(188.82421875,6.44921875)"/>
<path d="M0 0 C0.66 0 1.32 0 2 0 C0.57250019 3.79049707 -1.16236542 7.27122456 -3.125 10.8125 C-3.93324219 12.27623047 -3.93324219 12.27623047 -4.7578125 13.76953125 C-5.16773438 14.50558594 -5.57765625 15.24164063 -6 16 C-6.66 15.34 -7.32 14.68 -8 14 C-5.36 9.38 -2.72 4.76 0 0 Z " fill="#B348FD" transform="translate(225,173)"/>
<path d="M0 0 C3 1 3 1 4.82421875 4.16015625 C5.45553148 5.45600869 6.07625399 6.75706229 6.6875 8.0625 C7.00783203 8.72572266 7.32816406 9.38894531 7.65820312 10.07226562 C8.4478598 11.71050858 9.22512362 13.35471454 10 15 C5.93875609 13.64625203 5.39684351 11.73741172 3.3125 8.0625 C2.68988281 6.98097656 2.06726563 5.89945313 1.42578125 4.78515625 C0 2 0 2 0 0 Z " fill="#B249FC" transform="translate(116,246)"/>
<path d="M0 0 C3 1 3 1 4.60546875 3.72265625 C5.12753906 4.82480469 5.64960938 5.92695312 6.1875 7.0625 C6.71730469 8.16722656 7.24710938 9.27195312 7.79296875 10.41015625 C8.19128906 11.26480469 8.58960938 12.11945313 9 13 C8.01 13.495 8.01 13.495 7 14 C5.82807953 12.04480616 4.6626071 10.0857461 3.5 8.125 C2.8503125 7.03445312 2.200625 5.94390625 1.53125 4.8203125 C0 2 0 2 0 0 Z " fill="#53C3FD" transform="translate(6,53)"/>
<path d="M0 0 C0.66 0 1.32 0 2 0 C0.70306052 3.89081843 -0.70699112 6.48181674 -4 9 C-6.25 8.75 -6.25 8.75 -8 8 C-6.8553125 7.4121875 -6.8553125 7.4121875 -5.6875 6.8125 C-2.74308242 4.82673 -1.72532946 3.03986619 0 0 Z " fill="#B742FE" transform="translate(159,291)"/>
<path d="M0 0 C3.63 0 7.26 0 11 0 C7.68987756 3.31012244 6.46840411 3.50351065 2 4 C1.34 2.68 0.68 1.36 0 0 Z " fill="#FEEB6C" transform="translate(188,5)"/>
<path d="M0 0 C0.66 0 1.32 0 2 0 C0.90931332 3.77545388 0.0916909 6.47043472 -3 9 C-3.33 8.34 -3.66 7.68 -4 7 C-3.22265625 5.2734375 -3.22265625 5.2734375 -2.0625 3.375 C-1.381875 2.26125 -0.70125 1.1475 0 0 Z " fill="#A45CFD" transform="translate(268,96)"/>
<path d="M0 0 C0.66 0 1.32 0 2 0 C0.90931332 3.77545388 0.0916909 6.47043472 -3 9 C-3.33 8.34 -3.66 7.68 -4 7 C-3.22265625 5.2734375 -3.22265625 5.2734375 -2.0625 3.375 C-1.381875 2.26125 -0.70125 1.1475 0 0 Z " fill="#B14BFC" transform="translate(230,164)"/>
</svg>
